<svg width="1335" height="66" viewBox="0 0 1335 66" fill="none" xmlns="http://www.w3.org/2000/svg">
<path d="M1262.63 32.9537L1242.64 32.9537" stroke="black" stroke-width="1.93461" stroke-linecap="round"/>
<path d="M1294.45 2C1295.71 25.2484 1276.23 32.2386 1267.46 32.6313C1276.23 33.024 1295.71 40.0143 1294.45 63.2627C1301.12 60.9064 1304.66 47.947 1301.12 40.4855C1307.14 41.0091 1327.89 40.1714 1332.92 32.6313C1327.89 25.0913 1307.14 24.2535 1301.12 24.7771C1304.66 17.3157 1301.12 4.35626 1294.45 2Z" stroke="black" stroke-width="1.93461"/>
<path d="M1255.12 20.4003C1253.55 9.38944 1268.44 7.27797 1273.65 14.2977C1276.36 17.9402 1276.9 22.1185 1275.32 26.0634C1274.38 28.4302 1272.16 30.2668 1270.1 31.184C1268.04 32.1013 1263.78 32.9308 1261.34 32.9538C1263.78 32.9767 1268.04 33.5028 1270.1 34.4201C1272.16 35.3374 1274.38 37.1739 1275.32 39.5408C1276.9 43.4856 1276.36 47.6639 1273.65 51.3064C1268.44 58.3262 1253.55 56.2147 1255.12 45.2039M1255.12 20.4003C1255.17 20.7154 1255.23 21.0379 1255.3 21.3677M1255.12 20.4003C1255.15 20.7271 1255.21 21.0505 1255.3 21.3677M1255.12 20.4003C1255.12 20.333 1255.11 20.2656 1255.11 20.198M1255.3 21.3677C1255.32 21.4445 1255.34 21.5218 1255.35 21.5994M1255.3 21.3677C1256.39 25.3092 1261.76 28.2785 1264.4 24.6624C1266.27 22.1072 1264.56 18.3338 1260.51 18.7036M1255.12 45.2039C1255.17 44.8887 1255.23 44.5662 1255.3 44.2365M1255.12 45.2039C1255.15 44.8771 1255.21 44.5536 1255.3 44.2365M1255.12 45.2039C1255.12 45.2712 1255.11 45.3386 1255.11 45.4061M1255.3 44.2365C1255.32 44.1596 1255.34 44.0824 1255.35 44.0048M1255.3 44.2365C1256.39 40.2949 1261.76 37.3257 1264.4 40.9418C1266.27 43.4969 1264.56 47.2703 1260.51 46.9006" stroke="black" stroke-width="1.93461"/>
<path d="M1222 32.9537H112.918" stroke="black" stroke-width="1.93461" stroke-linecap="round"/>
<path d="M1234.98 25.2153C1234.98 30.869 1240.19 32.5857 1242.64 32.9538C1240.19 33.3219 1234.98 35.6834 1234.98 41.3371L1222 32.9538L1234.98 25.2153Z" stroke="black" stroke-width="1.93461" stroke-linejoin="round"/>
<path d="M72.2909 32.9537L92.2819 32.9537" stroke="black" stroke-width="1.93461" stroke-linecap="round"/>
<path d="M40.4679 63.9076C39.2118 40.6592 58.6878 33.669 67.4543 33.2763C58.6878 32.8835 39.2118 25.8933 40.4679 2.64491C33.7949 5.00117 30.2621 17.9606 33.7949 25.4221C27.7761 24.8984 7.02439 25.7362 2.00001 33.2763C7.02439 40.8163 27.7761 41.6541 33.7949 41.1304C30.2621 48.5919 33.7949 61.5513 40.4679 63.9076Z" stroke="black" stroke-width="1.93461"/>
<path d="M79.7937 45.5073C81.3719 56.5181 66.4761 58.6296 61.2627 51.6099C58.5576 47.9674 58.0164 43.789 59.5943 39.8442C60.541 37.4773 62.7566 35.6408 64.815 34.7236C66.8735 33.8063 71.1361 32.9768 73.5806 32.9538C71.1361 32.9309 66.8735 32.4048 64.815 31.4875C62.7566 30.5702 60.541 28.7337 59.5943 26.3668C58.0164 22.422 58.5576 18.2437 61.2627 14.6012C66.4761 7.5814 81.3719 9.69288 79.7937 20.7037M79.7937 45.5073C79.7485 45.1921 79.6899 44.8697 79.6171 44.5399M79.7937 45.5073C79.765 45.1805 79.7049 44.8571 79.6171 44.5399M79.7937 45.5073C79.7996 45.5746 79.8042 45.642 79.8074 45.7096M79.6171 44.5399C79.6001 44.4631 79.5824 44.3858 79.5639 44.3082M79.6171 44.5399C78.5259 40.5984 73.1553 37.6291 70.5157 41.2452C68.6505 43.8004 70.3591 47.5738 74.4036 47.204M79.7937 20.7037C79.7485 21.0189 79.6899 21.3414 79.6171 21.6711M79.7937 20.7037C79.765 21.0305 79.7049 21.354 79.6171 21.6711M79.7937 20.7037C79.7996 20.6364 79.8042 20.569 79.8074 20.5015M79.6171 21.6711C79.6001 21.748 79.5824 21.8252 79.5639 21.9028M79.6171 21.6711C78.5259 25.6127 73.1553 28.5819 70.5157 24.9658C68.6505 22.4107 70.3591 18.6373 74.4036 19.007" stroke="black" stroke-width="1.93461"/>
<path d="M99.9343 40.6923C99.9343 35.0386 94.7252 33.3219 92.2819 32.9538C94.7252 32.5857 99.9343 30.2242 99.9343 24.5705L112.918 32.9538L99.9343 40.6923Z" stroke="black" stroke-width="1.93461" stroke-linejoin="round"/>
</svg>
