<svg width="832" height="832" viewBox="0 0 832 832" fill="none" xmlns="http://www.w3.org/2000/svg">
<rect width="832" height="832" fill="#D62427"/>
<path d="M338.592 411.866L336.647 412.266V414.251V628.211C336.647 632.677 334.873 636.961 331.715 640.119C328.557 643.278 324.273 645.052 319.807 645.052C315.34 645.052 311.057 643.278 307.898 640.119C304.74 636.961 302.966 632.677 302.966 628.211V414.251V412.266L301.022 411.866C279.816 407.505 260.762 395.967 247.072 379.196C233.381 362.425 225.891 341.448 225.864 319.799V204.146C225.864 199.68 227.638 195.396 230.796 192.238C233.954 189.08 238.238 187.305 242.704 187.305C247.171 187.305 251.454 189.08 254.613 192.238C257.771 195.396 259.545 199.68 259.545 204.146L259.545 319.8L259.545 319.81C259.597 332.23 263.484 344.329 270.675 354.455C277.866 364.58 288.01 372.236 299.719 376.376L302.966 377.524V374.081V204.146C302.966 199.68 304.74 195.396 307.898 192.238C311.057 189.08 315.34 187.305 319.807 187.305C324.273 187.305 328.557 189.08 331.715 192.238C334.873 195.396 336.647 199.68 336.647 204.146V374.081V377.524L339.894 376.376C351.603 372.236 361.747 364.58 368.938 354.455C376.129 344.329 380.017 332.23 380.068 319.81V319.8V204.146C380.068 199.68 381.842 195.396 385.001 192.238C388.159 189.08 392.443 187.305 396.909 187.305C401.375 187.305 405.659 189.08 408.817 192.238C411.975 195.396 413.75 199.68 413.75 204.146V319.797C413.722 341.447 406.232 362.425 392.542 379.196C378.851 395.967 359.797 407.505 338.592 411.866ZM511.091 564.107L510.128 564.837V566.047V628.211C510.128 632.677 508.353 636.961 505.195 640.119C502.037 643.278 497.753 645.052 493.287 645.052C488.82 645.052 484.537 643.278 481.379 640.119C478.22 636.961 476.446 632.677 476.446 628.211V223.422V223.393L476.445 223.364C476.284 216.603 478.132 209.946 481.754 204.235C485.37 198.534 490.593 194.032 496.763 191.295C503.927 188.388 511.782 187.628 519.37 189.106C526.947 190.582 533.932 194.227 539.476 199.596C583.731 248.184 607.715 311.867 606.506 377.579C605.651 413.842 596.629 449.446 580.11 481.739C563.59 514.036 539.999 542.19 511.091 564.107ZM572.824 377.674L572.824 377.662L572.824 377.651C573.377 320.605 552.52 265.426 514.373 223.008L510.128 218.288V224.636V513.906V519.802L514.288 515.624C550.855 478.907 571.826 429.485 572.824 377.674Z" fill="#FEC52D" stroke="#F4F4F4" stroke-width="4.86964"/>
</svg>
